<?xml version="1.0" encoding="utf-8" ?>
<svg baseProfile="full" height="1600px" version="1.1" viewBox="0,-1600,1280,1600" width="1280px" xmlns="http://www.w3.org/2000/svg" xmlns:ev="http://www.w3.org/2001/xml-events" xmlns:xlink="http://www.w3.org/1999/xlink">
    <defs/>
    <path d="M 8.145455e+02,-1.236364e+03 6.981818e+02,-1.236364e+03 3.781818e+02,-8.745455e+01 3.799273e+02,-8.725884e+01 3.816727e+02,-8.706444e+01 3.834182e+02,-8.687135e+01 3.851636e+02,-8.667956e+01 3.869091e+02,-8.648909e+01 3.886545e+02,-8.629993e+01 3.904000e+02,-8.611207e+01 3.921455e+02,-8.592553e+01 3.938909e+02,-8.574029e+01 3.956364e+02,-8.555636e+01 3.973818e+02,-8.537375e+01 3.991273e+02,-8.519244e+01 4.008727e+02,-8.501244e+01 4.026182e+02,-8.483375e+01 4.043636e+02,-8.465636e+01 4.061091e+02,-8.448029e+01 4.078545e+02,-8.430553e+01 4.096000e+02,-8.413207e+01 4.113455e+02,-8.395993e+01 4.130909e+02,-8.378909e+01 4.148364e+02,-8.361956e+01 4.165818e+02,-8.345135e+01 4.183273e+02,-8.328444e+01 4.200727e+02,-8.311884e+01 4.218182e+02,-8.295455e+01 4.235636e+02,-8.279156e+01 4.253091e+02,-8.262989e+01 4.270545e+02,-8.246953e+01 4.288000e+02,-8.231047e+01 4.305455e+02,-8.215273e+01 4.322909e+02,-8.199629e+01 4.340364e+02,-8.184116e+01 4.357818e+02,-8.168735e+01 4.375273e+02,-8.153484e+01 4.392727e+02,-8.138364e+01 4.410182e+02,-8.123375e+01 4.427636e+02,-8.108516e+01 4.445091e+02,-8.093789e+01 4.462545e+02,-8.079193e+01 4.480000e+02,-8.064727e+01 4.497455e+02,-8.050393e+01 4.514909e+02,-8.036189e+01 4.532364e+02,-8.022116e+01 4.549818e+02,-8.008175e+01 4.567273e+02,-7.994364e+01 4.584727e+02,-7.980684e+01 4.602182e+02,-7.967135e+01 4.619636e+02,-7.953716e+01 4.637091e+02,-7.940429e+01 4.654545e+02,-7.927273e+01 4.672000e+02,-7.914247e+01 4.689455e+02,-7.901353e+01 4.706909e+02,-7.888589e+01 4.724364e+02,-7.875956e+01 4.741818e+02,-7.863455e+01 4.759273e+02,-7.851084e+01 4.776727e+02,-7.838844e+01 4.794182e+02,-7.826735e+01 4.811636e+02,-7.814756e+01 4.829091e+02,-7.802909e+01 4.846545e+02,-7.791193e+01 4.864000e+02,-7.779607e+01 4.881455e+02,-7.768153e+01 4.898909e+02,-7.756829e+01 4.916364e+02,-7.745636e+01 4.933818e+02,-7.734575e+01 4.951273e+02,-7.723644e+01 4.968727e+02,-7.712844e+01 4.986182e+02,-7.702175e+01 5.003636e+02,-7.691636e+01 5.021091e+02,-7.681229e+01 5.038545e+02,-7.670953e+01 5.056000e+02,-7.660807e+01 5.073455e+02,-7.650793e+01 5.090909e+02,-7.640909e+01 5.108364e+02,-7.631156e+01 5.125818e+02,-7.621535e+01 5.143273e+02,-7.612044e+01 5.160727e+02,-7.602684e+01 5.178182e+02,-7.593455e+01 5.195636e+02,-7.584356e+01 5.213091e+02,-7.575389e+01 5.230545e+02,-7.566553e+01 5.248000e+02,-7.557847e+01 5.265455e+02,-7.549273e+01 5.282909e+02,-7.540829e+01 5.300364e+02,-7.532516e+01 5.317818e+02,-7.524335e+01 5.335273e+02,-7.516284e+01 5.352727e+02,-7.508364e+01 5.370182e+02,-7.500575e+01 5.387636e+02,-7.492916e+01 5.405091e+02,-7.485389e+01 5.422545e+02,-7.477993e+01 5.440000e+02,-7.470727e+01 5.457455e+02,-7.463593e+01 5.474909e+02,-7.456589e+01 5.492364e+02,-7.449716e+01 5.509818e+02,-7.442975e+01 5.527273e+02,-7.436364e+01" fill="#0080FF" fill-opacity="0.2"/>
    <path d="M -1.454545e+02,-1.403636e+04 -1.716364e+03,-1.403636e+04 3.781818e+02,-8.745455e+01 3.799273e+02,-8.725884e+01 3.816727e+02,-8.706444e+01 3.834182e+02,-8.687135e+01 3.851636e+02,-8.667956e+01 3.869091e+02,-8.648909e+01 3.886545e+02,-8.629993e+01 3.904000e+02,-8.611207e+01 3.921455e+02,-8.592553e+01 3.938909e+02,-8.574029e+01 3.956364e+02,-8.555636e+01 3.973818e+02,-8.537375e+01 3.991273e+02,-8.519244e+01 4.008727e+02,-8.501244e+01 4.026182e+02,-8.483375e+01 4.043636e+02,-8.465636e+01 4.061091e+02,-8.448029e+01 4.078545e+02,-8.430553e+01 4.096000e+02,-8.413207e+01 4.113455e+02,-8.395993e+01 4.130909e+02,-8.378909e+01 4.148364e+02,-8.361956e+01 4.165818e+02,-8.345135e+01 4.183273e+02,-8.328444e+01 4.200727e+02,-8.311884e+01 4.218182e+02,-8.295455e+01 4.235636e+02,-8.279156e+01 4.253091e+02,-8.262989e+01 4.270545e+02,-8.246953e+01 4.288000e+02,-8.231047e+01 4.305455e+02,-8.215273e+01 4.322909e+02,-8.199629e+01 4.340364e+02,-8.184116e+01 4.357818e+02,-8.168735e+01 4.375273e+02,-8.153484e+01 4.392727e+02,-8.138364e+01 4.410182e+02,-8.123375e+01 4.427636e+02,-8.108516e+01 4.445091e+02,-8.093789e+01 4.462545e+02,-8.079193e+01 4.480000e+02,-8.064727e+01 4.497455e+02,-8.050393e+01 4.514909e+02,-8.036189e+01 4.532364e+02,-8.022116e+01 4.549818e+02,-8.008175e+01 4.567273e+02,-7.994364e+01 4.584727e+02,-7.980684e+01 4.602182e+02,-7.967135e+01 4.619636e+02,-7.953716e+01 4.637091e+02,-7.940429e+01 4.654545e+02,-7.927273e+01 4.672000e+02,-7.914247e+01 4.689455e+02,-7.901353e+01 4.706909e+02,-7.888589e+01 4.724364e+02,-7.875956e+01 4.741818e+02,-7.863455e+01 4.759273e+02,-7.851084e+01 4.776727e+02,-7.838844e+01 4.794182e+02,-7.826735e+01 4.811636e+02,-7.814756e+01 4.829091e+02,-7.802909e+01 4.846545e+02,-7.791193e+01 4.864000e+02,-7.779607e+01 4.881455e+02,-7.768153e+01 4.898909e+02,-7.756829e+01 4.916364e+02,-7.745636e+01 4.933818e+02,-7.734575e+01 4.951273e+02,-7.723644e+01 4.968727e+02,-7.712844e+01 4.986182e+02,-7.702175e+01 5.003636e+02,-7.691636e+01 5.021091e+02,-7.681229e+01 5.038545e+02,-7.670953e+01 5.056000e+02,-7.660807e+01 5.073455e+02,-7.650793e+01 5.090909e+02,-7.640909e+01 5.108364e+02,-7.631156e+01 5.125818e+02,-7.621535e+01 5.143273e+02,-7.612044e+01 5.160727e+02,-7.602684e+01 5.178182e+02,-7.593455e+01 5.195636e+02,-7.584356e+01 5.213091e+02,-7.575389e+01 5.230545e+02,-7.566553e+01 5.248000e+02,-7.557847e+01 5.265455e+02,-7.549273e+01 5.282909e+02,-7.540829e+01 5.300364e+02,-7.532516e+01 5.317818e+02,-7.524335e+01 5.335273e+02,-7.516284e+01 5.352727e+02,-7.508364e+01 5.370182e+02,-7.500575e+01 5.387636e+02,-7.492916e+01 5.405091e+02,-7.485389e+01 5.422545e+02,-7.477993e+01 5.440000e+02,-7.470727e+01 5.457455e+02,-7.463593e+01 5.474909e+02,-7.456589e+01 5.492364e+02,-7.449716e+01 5.509818e+02,-7.442975e+01 5.527273e+02,-7.436364e+01" fill="#0080FF" fill-opacity="0.2"/>
    <path d="M 6.981818e+02,-1.236364e+03 8.145455e+02,-1.236364e+03 7.912727e+02,-1.391515e+03 7.680000e+02,-1.391515e+03" fill="#0080FF" fill-opacity="0.2"/>
    <path d="M 4.421818e+02,-1.391515e+03 4.654545e+02,-1.391515e+03 4.596364e+02,-1.410715e+03 4.596364e+02,-1.449697e+03 4.480000e+02,-1.449697e+03 4.480000e+02,-1.410715e+03" fill="#C00000" fill-opacity="1.0"/>
    <path d="M 4.189091e+02,-1.391515e+03 4.421818e+02,-1.391515e+03 4.363636e+02,-1.410715e+03 4.363636e+02,-1.449697e+03 4.247273e+02,-1.449697e+03 4.247273e+02,-1.410715e+03" fill="#C00000" fill-opacity="1.0"/>
    <path d="M 3.956364e+02,-1.391515e+03 4.189091e+02,-1.391515e+03 4.130909e+02,-1.410715e+03 4.130909e+02,-1.449697e+03 4.014545e+02,-1.449697e+03 4.014545e+02,-1.410715e+03" fill="#C00000" fill-opacity="1.0"/>
    <path d="M 3.723636e+02,-1.391515e+03 3.956364e+02,-1.391515e+03 3.898182e+02,-1.410715e+03 3.898182e+02,-1.449697e+03 3.781818e+02,-1.449697e+03 3.781818e+02,-1.410715e+03" fill="#C00000" fill-opacity="1.0"/>
    <path d="M 3.490909e+02,-1.391515e+03 3.723636e+02,-1.391515e+03 3.665455e+02,-1.410715e+03 3.665455e+02,-1.449697e+03 3.549091e+02,-1.449697e+03 3.549091e+02,-1.410715e+03" fill="#C00000" fill-opacity="1.0"/>
    <path d="M 5.585455e+02,-1.391515e+03 5.818182e+02,-1.391515e+03 5.760000e+02,-1.410715e+03 5.760000e+02,-1.449697e+03 5.643636e+02,-1.449697e+03 5.643636e+02,-1.410715e+03" fill="#C00000" fill-opacity="1.0"/>
    <path d="M 5.352727e+02,-1.391515e+03 5.585455e+02,-1.391515e+03 5.527273e+02,-1.410715e+03 5.527273e+02,-1.449697e+03 5.410909e+02,-1.449697e+03 5.410909e+02,-1.410715e+03" fill="#C00000" fill-opacity="1.0"/>
    <path d="M 5.120000e+02,-1.391515e+03 5.352727e+02,-1.391515e+03 5.294545e+02,-1.410715e+03 5.294545e+02,-1.449697e+03 5.178182e+02,-1.449697e+03 5.178182e+02,-1.410715e+03" fill="#C00000" fill-opacity="1.0"/>
    <path d="M 4.887273e+02,-1.391515e+03 5.120000e+02,-1.391515e+03 5.061818e+02,-1.410715e+03 5.061818e+02,-1.449697e+03 4.945455e+02,-1.449697e+03 4.945455e+02,-1.410715e+03" fill="#C00000" fill-opacity="1.0"/>
    <path d="M 4.654545e+02,-1.391515e+03 4.887273e+02,-1.391515e+03 4.829091e+02,-1.410715e+03 4.829091e+02,-1.449697e+03 4.712727e+02,-1.449697e+03 4.712727e+02,-1.410715e+03" fill="#C00000" fill-opacity="1.0"/>
    <path d="M 6.749091e+02,-1.391515e+03 6.981818e+02,-1.391515e+03 6.923636e+02,-1.410715e+03 6.923636e+02,-1.449697e+03 6.807273e+02,-1.449697e+03 6.807273e+02,-1.410715e+03" fill="#C00000" fill-opacity="1.0"/>
    <path d="M 6.516364e+02,-1.391515e+03 6.749091e+02,-1.391515e+03 6.690909e+02,-1.410715e+03 6.690909e+02,-1.449697e+03 6.574545e+02,-1.449697e+03 6.574545e+02,-1.410715e+03" fill="#C00000" fill-opacity="1.0"/>
    <path d="M 6.283636e+02,-1.391515e+03 6.516364e+02,-1.391515e+03 6.458182e+02,-1.410715e+03 6.458182e+02,-1.449697e+03 6.341818e+02,-1.449697e+03 6.341818e+02,-1.410715e+03" fill="#C00000" fill-opacity="1.0"/>
    <path d="M 6.050909e+02,-1.391515e+03 6.283636e+02,-1.391515e+03 6.225455e+02,-1.410715e+03 6.225455e+02,-1.449697e+03 6.109091e+02,-1.449697e+03 6.109091e+02,-1.410715e+03" fill="#C00000" fill-opacity="1.0"/>
    <path d="M 5.818182e+02,-1.391515e+03 6.050909e+02,-1.391515e+03 5.992727e+02,-1.410715e+03 5.992727e+02,-1.449697e+03 5.876364e+02,-1.449697e+03 5.876364e+02,-1.410715e+03" fill="#C00000" fill-opacity="1.0"/>
    <path d="M 7.912727e+02,-1.391515e+03 8.145455e+02,-1.391515e+03 8.087273e+02,-1.410715e+03 8.087273e+02,-1.449697e+03 7.970909e+02,-1.449697e+03 7.970909e+02,-1.410715e+03" fill="#C00000" fill-opacity="1.0"/>
    <path d="M 7.680000e+02,-1.391515e+03 7.912727e+02,-1.391515e+03 7.854545e+02,-1.410715e+03 7.854545e+02,-1.449697e+03 7.738182e+02,-1.449697e+03 7.738182e+02,-1.410715e+03" fill="#C00000" fill-opacity="1.0"/>
    <path d="M 7.447273e+02,-1.391515e+03 7.680000e+02,-1.391515e+03 7.621818e+02,-1.410715e+03 7.621818e+02,-1.449697e+03 7.505455e+02,-1.449697e+03 7.505455e+02,-1.410715e+03" fill="#C00000" fill-opacity="1.0"/>
    <path d="M 7.214545e+02,-1.391515e+03 7.447273e+02,-1.391515e+03 7.389091e+02,-1.410715e+03 7.389091e+02,-1.449697e+03 7.272727e+02,-1.449697e+03 7.272727e+02,-1.410715e+03" fill="#C00000" fill-opacity="1.0"/>
    <path d="M 6.981818e+02,-1.391515e+03 7.214545e+02,-1.391515e+03 7.156364e+02,-1.410715e+03 7.156364e+02,-1.449697e+03 7.040000e+02,-1.449697e+03 7.040000e+02,-1.410715e+03" fill="#C00000" fill-opacity="1.0"/>
    <path d="M 9.076364e+02,-1.391515e+03 9.309091e+02,-1.391515e+03 9.250909e+02,-1.410715e+03 9.250909e+02,-1.449697e+03 9.134545e+02,-1.449697e+03 9.134545e+02,-1.410715e+03" fill="#C00000" fill-opacity="1.0"/>
    <path d="M 8.843636e+02,-1.391515e+03 9.076364e+02,-1.391515e+03 9.018182e+02,-1.410715e+03 9.018182e+02,-1.449697e+03 8.901818e+02,-1.449697e+03 8.901818e+02,-1.410715e+03" fill="#C00000" fill-opacity="1.0"/>
    <path d="M 8.610909e+02,-1.391515e+03 8.843636e+02,-1.391515e+03 8.785455e+02,-1.410715e+03 8.785455e+02,-1.449697e+03 8.669091e+02,-1.449697e+03 8.669091e+02,-1.410715e+03" fill="#C00000" fill-opacity="1.0"/>
    <path d="M 8.378182e+02,-1.391515e+03 8.610909e+02,-1.391515e+03 8.552727e+02,-1.410715e+03 8.552727e+02,-1.449697e+03 8.436364e+02,-1.449697e+03 8.436364e+02,-1.410715e+03" fill="#C00000" fill-opacity="1.0"/>
    <path d="M 8.145455e+02,-1.391515e+03 8.378182e+02,-1.391515e+03 8.320000e+02,-1.410715e+03 8.320000e+02,-1.449697e+03 8.203636e+02,-1.449697e+03 8.203636e+02,-1.410715e+03" fill="#C00000" fill-opacity="1.0"/>
    <line stroke="#00C000" stroke-opacity="1.0" stroke-width="5" x1="349.0909090909091" x2="349.0909090909091" y1="-1391.5151515151515" y2="-1236.3636363636363"/>
    <line stroke="#00C000" stroke-opacity="1.0" stroke-width="5" x1="465.4545454545455" x2="465.4545454545455" y1="-1391.5151515151515" y2="-1236.3636363636363"/>
    <path d="M 3.490909e+02,-1.236364e+03 3.539394e+02,-1.234040e+03 3.587879e+02,-1.231919e+03 3.636364e+02,-1.230000e+03 3.684848e+02,-1.228283e+03 3.733333e+02,-1.226768e+03 3.781818e+02,-1.225455e+03 3.830303e+02,-1.224343e+03 3.878788e+02,-1.223434e+03 3.927273e+02,-1.222727e+03 3.975758e+02,-1.222222e+03 4.024242e+02,-1.221919e+03 4.072727e+02,-1.221818e+03 4.121212e+02,-1.221919e+03 4.169697e+02,-1.222222e+03 4.218182e+02,-1.222727e+03 4.266667e+02,-1.223434e+03 4.315152e+02,-1.224343e+03 4.363636e+02,-1.225455e+03 4.412121e+02,-1.226768e+03 4.460606e+02,-1.228283e+03 4.509091e+02,-1.230000e+03 4.557576e+02,-1.231919e+03 4.606061e+02,-1.234040e+03 4.654545e+02,-1.236364e+03 4.654545e+02,-1.236364e+03 4.606061e+02,-1.238687e+03 4.557576e+02,-1.240808e+03 4.509091e+02,-1.242727e+03 4.460606e+02,-1.244444e+03 4.412121e+02,-1.245960e+03 4.363636e+02,-1.247273e+03 4.315152e+02,-1.248384e+03 4.266667e+02,-1.249293e+03 4.218182e+02,-1.250000e+03 4.169697e+02,-1.250505e+03 4.121212e+02,-1.250808e+03 4.072727e+02,-1.250909e+03 4.024242e+02,-1.250808e+03 3.975758e+02,-1.250505e+03 3.927273e+02,-1.250000e+03 3.878788e+02,-1.249293e+03 3.830303e+02,-1.248384e+03 3.781818e+02,-1.247273e+03 3.733333e+02,-1.245960e+03 3.684848e+02,-1.244444e+03 3.636364e+02,-1.242727e+03 3.587879e+02,-1.240808e+03 3.539394e+02,-1.238687e+03 3.490909e+02,-1.236364e+03" fill="none" stroke="#000000" stroke-opacity="1.0" stroke-width="5"/>
    <line stroke="#00C000" stroke-opacity="1.0" stroke-width="5" x1="465.4545454545455" x2="465.4545454545455" y1="-1391.5151515151515" y2="-1236.3636363636363"/>
    <line stroke="#00C000" stroke-opacity="1.0" stroke-width="5" x1="581.8181818181818" x2="581.8181818181818" y1="-1391.5151515151515" y2="-1236.3636363636363"/>
    <path d="M 4.654545e+02,-1.236364e+03 4.703030e+02,-1.234040e+03 4.751515e+02,-1.231919e+03 4.800000e+02,-1.230000e+03 4.848485e+02,-1.228283e+03 4.896970e+02,-1.226768e+03 4.945455e+02,-1.225455e+03 4.993939e+02,-1.224343e+03 5.042424e+02,-1.223434e+03 5.090909e+02,-1.222727e+03 5.139394e+02,-1.222222e+03 5.187879e+02,-1.221919e+03 5.236364e+02,-1.221818e+03 5.284848e+02,-1.221919e+03 5.333333e+02,-1.222222e+03 5.381818e+02,-1.222727e+03 5.430303e+02,-1.223434e+03 5.478788e+02,-1.224343e+03 5.527273e+02,-1.225455e+03 5.575758e+02,-1.226768e+03 5.624242e+02,-1.228283e+03 5.672727e+02,-1.230000e+03 5.721212e+02,-1.231919e+03 5.769697e+02,-1.234040e+03 5.818182e+02,-1.236364e+03 5.818182e+02,-1.236364e+03 5.769697e+02,-1.238687e+03 5.721212e+02,-1.240808e+03 5.672727e+02,-1.242727e+03 5.624242e+02,-1.244444e+03 5.575758e+02,-1.245960e+03 5.527273e+02,-1.247273e+03 5.478788e+02,-1.248384e+03 5.430303e+02,-1.249293e+03 5.381818e+02,-1.250000e+03 5.333333e+02,-1.250505e+03 5.284848e+02,-1.250808e+03 5.236364e+02,-1.250909e+03 5.187879e+02,-1.250808e+03 5.139394e+02,-1.250505e+03 5.090909e+02,-1.250000e+03 5.042424e+02,-1.249293e+03 4.993939e+02,-1.248384e+03 4.945455e+02,-1.247273e+03 4.896970e+02,-1.245960e+03 4.848485e+02,-1.244444e+03 4.800000e+02,-1.242727e+03 4.751515e+02,-1.240808e+03 4.703030e+02,-1.238687e+03 4.654545e+02,-1.236364e+03" fill="none" stroke="#000000" stroke-opacity="1.0" stroke-width="5"/>
    <line stroke="#00C000" stroke-opacity="1.0" stroke-width="5" x1="581.8181818181818" x2="581.8181818181818" y1="-1391.5151515151515" y2="-1236.3636363636363"/>
    <line stroke="#00C000" stroke-opacity="1.0" stroke-width="5" x1="698.1818181818182" x2="698.1818181818182" y1="-1391.5151515151515" y2="-1236.3636363636363"/>
    <path d="M 5.818182e+02,-1.236364e+03 5.866667e+02,-1.234040e+03 5.915152e+02,-1.231919e+03 5.963636e+02,-1.230000e+03 6.012121e+02,-1.228283e+03 6.060606e+02,-1.226768e+03 6.109091e+02,-1.225455e+03 6.157576e+02,-1.224343e+03 6.206061e+02,-1.223434e+03 6.254545e+02,-1.222727e+03 6.303030e+02,-1.222222e+03 6.351515e+02,-1.221919e+03 6.400000e+02,-1.221818e+03 6.448485e+02,-1.221919e+03 6.496970e+02,-1.222222e+03 6.545455e+02,-1.222727e+03 6.593939e+02,-1.223434e+03 6.642424e+02,-1.224343e+03 6.690909e+02,-1.225455e+03 6.739394e+02,-1.226768e+03 6.787879e+02,-1.228283e+03 6.836364e+02,-1.230000e+03 6.884848e+02,-1.231919e+03 6.933333e+02,-1.234040e+03 6.981818e+02,-1.236364e+03 6.981818e+02,-1.236364e+03 6.933333e+02,-1.238687e+03 6.884848e+02,-1.240808e+03 6.836364e+02,-1.242727e+03 6.787879e+02,-1.244444e+03 6.739394e+02,-1.245960e+03 6.690909e+02,-1.247273e+03 6.642424e+02,-1.248384e+03 6.593939e+02,-1.249293e+03 6.545455e+02,-1.250000e+03 6.496970e+02,-1.250505e+03 6.448485e+02,-1.250808e+03 6.400000e+02,-1.250909e+03 6.351515e+02,-1.250808e+03 6.303030e+02,-1.250505e+03 6.254545e+02,-1.250000e+03 6.206061e+02,-1.249293e+03 6.157576e+02,-1.248384e+03 6.109091e+02,-1.247273e+03 6.060606e+02,-1.245960e+03 6.012121e+02,-1.244444e+03 5.963636e+02,-1.242727e+03 5.915152e+02,-1.240808e+03 5.866667e+02,-1.238687e+03 5.818182e+02,-1.236364e+03" fill="none" stroke="#000000" stroke-opacity="1.0" stroke-width="5"/>
    <line stroke="#00C000" stroke-opacity="1.0" stroke-width="5" x1="698.1818181818182" x2="698.1818181818182" y1="-1391.5151515151515" y2="-1236.3636363636363"/>
    <line stroke="#00C000" stroke-opacity="1.0" stroke-width="5" x1="814.5454545454545" x2="814.5454545454545" y1="-1391.5151515151515" y2="-1236.3636363636363"/>
    <path d="M 6.981818e+02,-1.236364e+03 7.030303e+02,-1.234040e+03 7.078788e+02,-1.231919e+03 7.127273e+02,-1.230000e+03 7.175758e+02,-1.228283e+03 7.224242e+02,-1.226768e+03 7.272727e+02,-1.225455e+03 7.321212e+02,-1.224343e+03 7.369697e+02,-1.223434e+03 7.418182e+02,-1.222727e+03 7.466667e+02,-1.222222e+03 7.515152e+02,-1.221919e+03 7.563636e+02,-1.221818e+03 7.612121e+02,-1.221919e+03 7.660606e+02,-1.222222e+03 7.709091e+02,-1.222727e+03 7.757576e+02,-1.223434e+03 7.806061e+02,-1.224343e+03 7.854545e+02,-1.225455e+03 7.903030e+02,-1.226768e+03 7.951515e+02,-1.228283e+03 8.000000e+02,-1.230000e+03 8.048485e+02,-1.231919e+03 8.096970e+02,-1.234040e+03 8.145455e+02,-1.236364e+03 8.145455e+02,-1.236364e+03 8.096970e+02,-1.238687e+03 8.048485e+02,-1.240808e+03 8.000000e+02,-1.242727e+03 7.951515e+02,-1.244444e+03 7.903030e+02,-1.245960e+03 7.854545e+02,-1.247273e+03 7.806061e+02,-1.248384e+03 7.757576e+02,-1.249293e+03 7.709091e+02,-1.250000e+03 7.660606e+02,-1.250505e+03 7.612121e+02,-1.250808e+03 7.563636e+02,-1.250909e+03 7.515152e+02,-1.250808e+03 7.466667e+02,-1.250505e+03 7.418182e+02,-1.250000e+03 7.369697e+02,-1.249293e+03 7.321212e+02,-1.248384e+03 7.272727e+02,-1.247273e+03 7.224242e+02,-1.245960e+03 7.175758e+02,-1.244444e+03 7.127273e+02,-1.242727e+03 7.078788e+02,-1.240808e+03 7.030303e+02,-1.238687e+03 6.981818e+02,-1.236364e+03" fill="none" stroke="#000000" stroke-opacity="1.0" stroke-width="5"/>
    <line stroke="#00C000" stroke-opacity="1.0" stroke-width="5" x1="814.5454545454545" x2="814.5454545454545" y1="-1391.5151515151515" y2="-1236.3636363636363"/>
    <line stroke="#00C000" stroke-opacity="1.0" stroke-width="5" x1="930.909090909091" x2="930.909090909091" y1="-1391.5151515151515" y2="-1236.3636363636363"/>
    <path d="M 8.145455e+02,-1.236364e+03 8.193939e+02,-1.234040e+03 8.242424e+02,-1.231919e+03 8.290909e+02,-1.230000e+03 8.339394e+02,-1.228283e+03 8.387879e+02,-1.226768e+03 8.436364e+02,-1.225455e+03 8.484848e+02,-1.224343e+03 8.533333e+02,-1.223434e+03 8.581818e+02,-1.222727e+03 8.630303e+02,-1.222222e+03 8.678788e+02,-1.221919e+03 8.727273e+02,-1.221818e+03 8.775758e+02,-1.221919e+03 8.824242e+02,-1.222222e+03 8.872727e+02,-1.222727e+03 8.921212e+02,-1.223434e+03 8.969697e+02,-1.224343e+03 9.018182e+02,-1.225455e+03 9.066667e+02,-1.226768e+03 9.115152e+02,-1.228283e+03 9.163636e+02,-1.230000e+03 9.212121e+02,-1.231919e+03 9.260606e+02,-1.234040e+03 9.309091e+02,-1.236364e+03 9.309091e+02,-1.236364e+03 9.260606e+02,-1.238687e+03 9.212121e+02,-1.240808e+03 9.163636e+02,-1.242727e+03 9.115152e+02,-1.244444e+03 9.066667e+02,-1.245960e+03 9.018182e+02,-1.247273e+03 8.969697e+02,-1.248384e+03 8.921212e+02,-1.249293e+03 8.872727e+02,-1.250000e+03 8.824242e+02,-1.250505e+03 8.775758e+02,-1.250808e+03 8.727273e+02,-1.250909e+03 8.678788e+02,-1.250808e+03 8.630303e+02,-1.250505e+03 8.581818e+02,-1.250000e+03 8.533333e+02,-1.249293e+03 8.484848e+02,-1.248384e+03 8.436364e+02,-1.247273e+03 8.387879e+02,-1.245960e+03 8.339394e+02,-1.244444e+03 8.290909e+02,-1.242727e+03 8.242424e+02,-1.240808e+03 8.193939e+02,-1.238687e+03 8.145455e+02,-1.236364e+03" fill="none" stroke="#000000" stroke-opacity="1.0" stroke-width="5"/>
    <path d="M 2.036364e+02,-1.136364e+02 2.123636e+02,-1.120164e+02 2.210909e+02,-1.104291e+02 2.298182e+02,-1.088745e+02 2.385455e+02,-1.073527e+02 2.472727e+02,-1.058636e+02 2.560000e+02,-1.044073e+02 2.647273e+02,-1.029836e+02 2.734545e+02,-1.015927e+02 2.821818e+02,-1.002345e+02 2.909091e+02,-9.890909e+01 2.996364e+02,-9.761636e+01 3.083636e+02,-9.635636e+01 3.170909e+02,-9.512909e+01 3.258182e+02,-9.393455e+01 3.345455e+02,-9.277273e+01 3.432727e+02,-9.164364e+01 3.520000e+02,-9.054727e+01 3.607273e+02,-8.948364e+01 3.694545e+02,-8.845273e+01 3.781818e+02,-8.745455e+01 3.869091e+02,-8.648909e+01 3.956364e+02,-8.555636e+01 4.043636e+02,-8.465636e+01 4.130909e+02,-8.378909e+01 4.218182e+02,-8.295455e+01 4.305455e+02,-8.215273e+01 4.392727e+02,-8.138364e+01 4.480000e+02,-8.064727e+01 4.567273e+02,-7.994364e+01 4.654545e+02,-7.927273e+01 4.741818e+02,-7.863455e+01 4.829091e+02,-7.802909e+01 4.916364e+02,-7.745636e+01 5.003636e+02,-7.691636e+01 5.090909e+02,-7.640909e+01 5.178182e+02,-7.593455e+01 5.265455e+02,-7.549273e+01 5.352727e+02,-7.508364e+01 5.440000e+02,-7.470727e+01 5.527273e+02,-7.436364e+01 5.614545e+02,-7.405273e+01 5.701818e+02,-7.377455e+01 5.789091e+02,-7.352909e+01 5.876364e+02,-7.331636e+01 5.963636e+02,-7.313636e+01 6.050909e+02,-7.298909e+01 6.138182e+02,-7.287455e+01 6.225455e+02,-7.279273e+01 6.312727e+02,-7.274364e+01 6.400000e+02,-7.272727e+01 6.487273e+02,-7.274364e+01 6.574545e+02,-7.279273e+01 6.661818e+02,-7.287455e+01 6.749091e+02,-7.298909e+01 6.836364e+02,-7.313636e+01 6.923636e+02,-7.331636e+01 7.010909e+02,-7.352909e+01 7.098182e+02,-7.377455e+01 7.185455e+02,-7.405273e+01 7.272727e+02,-7.436364e+01 7.360000e+02,-7.470727e+01 7.447273e+02,-7.508364e+01 7.534545e+02,-7.549273e+01 7.621818e+02,-7.593455e+01 7.709091e+02,-7.640909e+01 7.796364e+02,-7.691636e+01 7.883636e+02,-7.745636e+01 7.970909e+02,-7.802909e+01 8.058182e+02,-7.863455e+01 8.145455e+02,-7.927273e+01 8.232727e+02,-7.994364e+01 8.320000e+02,-8.064727e+01 8.407273e+02,-8.138364e+01 8.494545e+02,-8.215273e+01 8.581818e+02,-8.295455e+01 8.669091e+02,-8.378909e+01 8.756364e+02,-8.465636e+01 8.843636e+02,-8.555636e+01 8.930909e+02,-8.648909e+01 9.018182e+02,-8.745455e+01 9.105455e+02,-8.845273e+01 9.192727e+02,-8.948364e+01 9.280000e+02,-9.054727e+01 9.367273e+02,-9.164364e+01 9.454545e+02,-9.277273e+01 9.541818e+02,-9.393455e+01 9.629091e+02,-9.512909e+01 9.716364e+02,-9.635636e+01 9.803636e+02,-9.761636e+01 9.890909e+02,-9.890909e+01 9.978182e+02,-1.002345e+02 1.006545e+03,-1.015927e+02 1.015273e+03,-1.029836e+02 1.024000e+03,-1.044073e+02 1.032727e+03,-1.058636e+02 1.041455e+03,-1.073527e+02 1.050182e+03,-1.088745e+02 1.058909e+03,-1.104291e+02 1.067636e+03,-1.120164e+02 1.076364e+03,-1.136364e+02" fill="none" stroke="#000000" stroke-width="10"/>
    <line stroke="#000000" stroke-opacity="0.5" stroke-width="2" x1="640.0" x2="640.0" y1="-14.545454545454495" y2="-1480.727272727273"/>
    <line stroke="#000000" stroke-opacity="0.5" stroke-width="2" x1="160.0" x2="1120.0" y1="-72.72727272727273" y2="-72.72727272727273"/>
    <line stroke="#000000" stroke-opacity="0.5" stroke-width="2" x1="320.0" x2="960.0" y1="-1236.3636363636363" y2="-1236.3636363636363"/>
</svg>
